<svg width="90" height="23" viewBox="0 0 90 23" fill="none" xmlns="http://www.w3.org/2000/svg">
<path d="M36.0779 4.70386H31.3372C31.1802 4.70376 31.0284 4.76002 30.9091 4.8625C30.7897 4.96499 30.7107 5.10695 30.6862 5.26283L28.7689 17.4856C28.7601 17.5423 28.7636 17.6003 28.7792 17.6555C28.7948 17.7107 28.8221 17.7619 28.8593 17.8055C28.8964 17.849 28.9425 17.884 28.9944 17.908C29.0463 17.9319 29.1028 17.9443 29.1599 17.9442H31.4231C31.5802 17.9443 31.7321 17.8879 31.8514 17.7853C31.9708 17.6827 32.0497 17.5405 32.074 17.3845L32.5911 14.0879C32.6154 13.932 32.6943 13.7899 32.8135 13.6873C32.9327 13.5847 33.0844 13.5283 33.2413 13.5282H34.7421C37.8649 13.5282 39.6672 12.0088 40.1378 8.99789C40.35 7.68061 40.1469 6.64561 39.5334 5.92077C38.8596 5.12483 37.6646 4.70386 36.0779 4.70386V4.70386ZM36.6248 9.16795C36.3655 10.8783 35.0658 10.8783 33.8091 10.8783H33.0937L33.5956 7.6841C33.6102 7.59065 33.6576 7.50554 33.7292 7.44408C33.8007 7.38263 33.8917 7.34886 33.9858 7.34886H34.3137C35.1698 7.34886 35.9773 7.34886 36.3946 7.83952C36.6435 8.13225 36.7197 8.56716 36.6248 9.16795V9.16795ZM50.2487 9.11289H47.9785C47.8844 9.11289 47.7934 9.14666 47.7218 9.20811C47.6503 9.26957 47.6029 9.35468 47.5882 9.44813L47.4877 10.0866L47.329 9.85516C46.8375 9.13798 45.7416 8.89822 44.6477 8.89822C42.1391 8.89822 39.9964 10.8086 39.5791 13.4885C39.3622 14.8253 39.6706 16.1035 40.4248 16.9949C41.1166 17.8146 42.1065 18.1561 43.2842 18.1561C45.3055 18.1561 46.4264 16.8493 46.4264 16.8493L46.3252 17.4835C46.3162 17.5402 46.3195 17.5982 46.3349 17.6535C46.3504 17.7088 46.3775 17.7601 46.4145 17.8038C46.4516 17.8475 46.4976 17.8826 46.5494 17.9068C46.6013 17.9309 46.6577 17.9434 46.7148 17.9435H48.7597C48.9167 17.9436 49.0686 17.8872 49.188 17.7846C49.3073 17.682 49.3863 17.5398 49.4106 17.3838L50.6375 9.57149C50.6466 9.51491 50.6433 9.45704 50.6279 9.40186C50.6125 9.34669 50.5854 9.29553 50.5484 9.25192C50.5114 9.20832 50.4655 9.1733 50.4137 9.1493C50.362 9.12529 50.3056 9.11287 50.2487 9.11289V9.11289ZM47.0843 13.5554C46.8652 14.8594 45.8358 15.7348 44.5229 15.7348C43.8637 15.7348 43.3369 15.5222 42.9986 15.1194C42.6631 14.7193 42.5356 14.1499 42.6423 13.5156C42.8468 12.2228 43.8935 11.3188 45.1863 11.3188C45.831 11.3188 46.355 11.5342 46.7002 11.9405C47.0461 12.351 47.1834 12.9239 47.0843 13.5554V13.5554ZM62.3392 9.11289H60.0579C59.9503 9.11306 59.8444 9.13962 59.7494 9.19027C59.6543 9.24091 59.5729 9.31412 59.5124 9.40352L56.366 14.0635L55.0323 9.58543C54.9914 9.44885 54.9078 9.32916 54.794 9.24405C54.6801 9.15895 54.542 9.11296 54.4001 9.11289H52.1584C52.0954 9.11272 52.0334 9.12767 51.9774 9.15648C51.9214 9.1853 51.873 9.22715 51.8363 9.27856C51.7996 9.32997 51.7757 9.38944 51.7665 9.45203C51.7573 9.51462 51.763 9.57852 51.7834 9.6384L54.2962 17.0528L51.9338 20.4059C51.8918 20.4653 51.8669 20.5353 51.8618 20.608C51.8567 20.6807 51.8716 20.7535 51.9049 20.8182C51.9382 20.883 51.9886 20.9373 52.0505 20.9752C52.1125 21.0132 52.1836 21.0332 52.2561 21.0332H54.5346C54.641 21.0333 54.7458 21.0075 54.8401 20.958C54.9344 20.9085 55.0154 20.8367 55.076 20.7488L62.6636 9.73668C62.7047 9.6771 62.7289 9.60734 62.7334 9.53496C62.7379 9.46258 62.7226 9.39034 62.6892 9.32607C62.6557 9.26181 62.6054 9.20797 62.5438 9.17039C62.4821 9.13281 62.4113 9.11292 62.3392 9.11289V9.11289Z" fill="#253B80"/>
<path d="M69.8922 4.70385H65.1508C64.994 4.70392 64.8423 4.76025 64.7231 4.86272C64.6039 4.96519 64.525 5.10707 64.5006 5.26282L62.5832 17.4856C62.5743 17.5422 62.5777 17.6001 62.5932 17.6553C62.6087 17.7104 62.6358 17.7616 62.6729 17.8052C62.7099 17.8488 62.7559 17.8838 62.8077 17.9078C62.8594 17.9318 62.9158 17.9442 62.9728 17.9442H65.4059C65.5156 17.944 65.6218 17.9045 65.7051 17.8327C65.7885 17.7609 65.8436 17.6615 65.8606 17.5525L66.4048 14.0879C66.429 13.932 66.5079 13.7899 66.6271 13.6873C66.7463 13.5847 66.898 13.5283 67.055 13.5282H68.555C71.6785 13.5282 73.4801 12.0088 73.9515 8.99788C74.1643 7.68061 73.9598 6.64561 73.3463 5.92076C72.6732 5.12482 71.4789 4.70385 69.8922 4.70385V4.70385ZM70.4391 9.16794C70.1805 10.8783 68.8808 10.8783 67.6234 10.8783H66.9087L67.4113 7.68409C67.4257 7.59064 67.4729 7.50546 67.5443 7.44397C67.6158 7.38248 67.7068 7.34874 67.8008 7.34885H68.1287C68.9841 7.34885 69.7924 7.34885 70.2097 7.83952C70.4585 8.13225 70.5341 8.56716 70.4391 9.16794V9.16794ZM84.0623 9.11288H81.7935C81.6994 9.11262 81.6083 9.14631 81.5368 9.20783C81.4654 9.26935 81.4182 9.35461 81.4039 9.44812L81.3034 10.0865L81.144 9.85516C80.6525 9.13797 79.5573 8.89822 78.4634 8.89822C75.9548 8.89822 73.8128 10.8086 73.3955 13.4885C73.1793 14.8252 73.4863 16.1035 74.2405 16.9949C74.9337 17.8146 75.9222 18.1561 77.0999 18.1561C79.1213 18.1561 80.2421 16.8492 80.2421 16.8492L80.1409 17.4835C80.1319 17.5403 80.1352 17.5984 80.1507 17.6538C80.1662 17.7092 80.1935 17.7606 80.2307 17.8043C80.2679 17.8481 80.3141 17.8832 80.3661 17.9072C80.4181 17.9312 80.4747 17.9436 80.5319 17.9435H82.5761C82.733 17.9434 82.8848 17.887 83.004 17.7844C83.1232 17.6817 83.202 17.5397 83.2263 17.3838L84.4539 9.57149C84.4626 9.51473 84.459 9.45675 84.4433 9.40153C84.4276 9.34631 84.4002 9.29516 84.363 9.25159C84.3258 9.20802 84.2797 9.17307 84.2278 9.14912C84.1759 9.12518 84.1194 9.11282 84.0623 9.11288V9.11288ZM80.8979 13.5554C80.6802 14.8594 79.6495 15.7348 78.3366 15.7348C77.6787 15.7348 77.1505 15.5222 76.8123 15.1194C76.4767 14.7193 76.3506 14.1499 76.456 13.5156C76.6618 12.2228 77.7072 11.3188 78.9999 11.3188C79.6446 11.3188 80.1687 11.5342 80.5139 11.9405C80.8612 12.351 80.9984 12.9239 80.8979 13.5554V13.5554ZM86.7387 5.03909L84.7929 17.4856C84.784 17.5422 84.7874 17.6001 84.8029 17.6553C84.8183 17.7104 84.8455 17.7616 84.8826 17.8052C84.9196 17.8488 84.9656 17.8838 85.0173 17.9078C85.0691 17.9318 85.1255 17.9442 85.1825 17.9442H87.1386C87.4638 17.9442 87.7396 17.7072 87.7895 17.3845L89.7083 5.16246C89.7172 5.1058 89.7138 5.04788 89.6983 4.99268C89.6829 4.93747 89.6557 4.88628 89.6187 4.84264C89.5816 4.799 89.5357 4.76393 89.4839 4.73986C89.4321 4.71578 89.3758 4.70326 89.3187 4.70316H87.1282C87.0342 4.70349 86.9434 4.73748 86.872 4.79904C86.8006 4.86059 86.7533 4.9457 86.7387 5.03909Z" fill="#179BD7"/>
<path d="M9.08174 20.3195L9.44427 18.0041L8.63671 17.9853H4.78052L7.46037 0.90049C7.46835 0.848288 7.49472 0.800707 7.53468 0.76642C7.57463 0.732133 7.62551 0.713424 7.67804 0.713702H14.1801C16.3387 0.713702 17.8284 1.16534 18.6061 2.05676C18.9707 2.47494 19.2029 2.91194 19.3152 3.39285C19.4331 3.89746 19.4352 4.50034 19.3201 5.23564L19.3118 5.28931V5.76046L19.6764 5.96816C19.9547 6.10995 20.2049 6.30175 20.4146 6.5341C20.7266 6.89164 20.9283 7.34607 21.0135 7.88482C21.1016 8.43892 21.0725 9.09825 20.9283 9.8447C20.7619 10.7034 20.493 11.4512 20.1297 12.0632C19.8093 12.6114 19.3784 13.0862 18.8647 13.4571C18.3822 13.8014 17.8089 14.0628 17.1608 14.23C16.5328 14.3945 15.8167 14.4775 15.0314 14.4775H14.5253C14.1635 14.4775 13.812 14.6085 13.5362 14.8434C13.2607 15.0808 13.0779 15.4087 13.0204 15.7689L12.9823 15.9773L12.3418 20.0581L12.3127 20.2079C12.3051 20.2553 12.2919 20.279 12.2725 20.2951C12.2537 20.3105 12.2302 20.3191 12.2059 20.3195H9.08174Z" fill="#253B80"/>
<path d="M20.0213 5.34367C20.0019 5.46843 19.9798 5.59598 19.9548 5.72701C19.0973 10.1535 16.1638 11.6826 12.4171 11.6826H10.5094C10.0512 11.6826 9.66514 12.0172 9.59375 12.4716L8.61705 18.6997L8.34047 20.4651C8.32945 20.5352 8.33366 20.6068 8.3528 20.675C8.37194 20.7432 8.40556 20.8065 8.45135 20.8604C8.49713 20.9143 8.554 20.9576 8.61802 20.9873C8.68205 21.017 8.75172 21.0324 8.82223 21.0325H12.2057C12.6063 21.0325 12.9467 20.7397 13.0098 20.3425L13.043 20.1696L13.6801 16.1049L13.721 15.8819C13.7834 15.4832 14.1244 15.1905 14.5251 15.1905H15.0311C18.3092 15.1905 20.8753 13.8523 21.6254 9.97992C21.9387 8.36225 21.7765 7.01152 20.9474 6.06155C20.6847 5.76768 20.3708 5.52442 20.0213 5.34367V5.34367Z" fill="#179BD7"/>
<path d="M19.1246 4.98403C18.8508 4.9044 18.5723 4.84225 18.2907 4.79794C17.7343 4.71197 17.172 4.67071 16.609 4.67458H11.5127C11.3188 4.67443 11.1312 4.74405 10.9838 4.87085C10.8365 4.99766 10.7391 5.17328 10.7093 5.36597L9.62519 12.2702L9.59399 12.4716C9.62777 12.2518 9.73867 12.0514 9.90662 11.9067C10.0746 11.762 10.2885 11.6825 10.5097 11.6826H12.4173C16.164 11.6826 19.0976 10.1528 19.955 5.727C19.9807 5.59597 20.0022 5.46843 20.0216 5.34367C19.7953 5.22437 19.5595 5.12435 19.3166 5.04467C19.2529 5.02343 19.1889 5.00321 19.1246 4.98403V4.98403Z" fill="#222D65"/>
<path d="M10.7091 5.36597C10.7387 5.17322 10.836 4.99752 10.9834 4.87078C11.1308 4.74404 11.3186 4.67467 11.5126 4.67527H16.6089C17.2126 4.67527 17.7762 4.715 18.2905 4.79864C18.6386 4.85364 18.9818 4.9359 19.3171 5.04467C19.5701 5.129 19.8051 5.22867 20.0221 5.34367C20.2772 3.70788 20.02 2.59412 19.1404 1.58561C18.1706 0.475333 16.4203 0 14.1806 0H7.67854C7.22104 0 6.83077 0.334545 6.76007 0.789667L4.05179 18.0501C4.03918 18.1303 4.04398 18.2122 4.06586 18.2903C4.08774 18.3684 4.12619 18.4408 4.17856 18.5025C4.23093 18.5642 4.29597 18.6138 4.36922 18.6479C4.44247 18.6819 4.52218 18.6996 4.60287 18.6997H8.61711L9.62501 12.2702L10.7091 5.36597V5.36597Z" fill="#253B80"/>
</svg>
